<?xml version="1.0" encoding="UTF-8"?>
<svg xmlns="http://www.w3.org/2000/svg" xmlns:xlink="http://www.w3.org/1999/xlink" width="1541.49pt" height="822.1pt" viewBox="0 0 1541.49 822.1" version="1.1">
<defs>
<clipPath id="clip1">
  <path d="M 0 0 L 1541.488281 0 L 1541.488281 822 L 0 822 Z M 0 0 "/>
</clipPath>
<clipPath id="clip2">
  <path d="M 1148.53125 0.246094 L 1141.238281 19.230469 L 600.117188 19.230469 L 607.414063 0.246094 L 108.367188 0.246094 C 108.367188 0.246094 0.476563 0.246094 0.476563 108.144531 L 0.476563 714.457031 C 0.476563 714.457031 0.488281 780.324219 51.945313 809.144531 C 66.210938 816.890625 84.367188 821.855469 107.457031 821.855469 L 1433.121094 821.855469 C 1433.121094 821.855469 1541.019531 821.855469 1541.019531 713.949219 L 1541.019531 107.648438 C 1541.019531 107.648438 1541.019531 41.234375 1488.910156 12.617188 C 1474.75 5.046875 1456.800781 0.246094 1434.03125 0.246094 Z M 1148.53125 0.246094 "/>
</clipPath>
<clipPath id="clip3">
  <path d="M 0 58 L 1541.488281 58 L 1541.488281 159 L 0 159 Z M 0 58 "/>
</clipPath>
<clipPath id="clip4">
  <path d="M 1148.53125 0.246094 L 1141.238281 19.230469 L 600.117188 19.230469 L 607.414063 0.246094 L 108.367188 0.246094 C 108.367188 0.246094 0.476563 0.246094 0.476563 108.144531 L 0.476563 714.457031 C 0.476563 714.457031 0.488281 780.324219 51.945313 809.144531 C 66.210938 816.890625 84.367188 821.855469 107.457031 821.855469 L 1433.121094 821.855469 C 1433.121094 821.855469 1541.019531 821.855469 1541.019531 713.949219 L 1541.019531 107.648438 C 1541.019531 107.648438 1541.019531 41.234375 1488.910156 12.617188 C 1474.75 5.046875 1456.800781 0.246094 1434.03125 0.246094 Z M 1148.53125 0.246094 "/>
</clipPath>
<clipPath id="clip5">
  <path d="M 0 189 L 1541.488281 189 L 1541.488281 290 L 0 290 Z M 0 189 "/>
</clipPath>
<clipPath id="clip6">
  <path d="M 1148.53125 0.246094 L 1141.238281 19.230469 L 600.117188 19.230469 L 607.414063 0.246094 L 108.367188 0.246094 C 108.367188 0.246094 0.476563 0.246094 0.476563 108.144531 L 0.476563 714.457031 C 0.476563 714.457031 0.488281 780.324219 51.945313 809.144531 C 66.210938 816.890625 84.367188 821.855469 107.457031 821.855469 L 1433.121094 821.855469 C 1433.121094 821.855469 1541.019531 821.855469 1541.019531 713.949219 L 1541.019531 107.648438 C 1541.019531 107.648438 1541.019531 41.234375 1488.910156 12.617188 C 1474.75 5.046875 1456.800781 0.246094 1434.03125 0.246094 Z M 1148.53125 0.246094 "/>
</clipPath>
<clipPath id="clip7">
  <path d="M 0 320 L 1541.488281 320 L 1541.488281 421 L 0 421 Z M 0 320 "/>
</clipPath>
<clipPath id="clip8">
  <path d="M 1148.53125 0.246094 L 1141.238281 19.230469 L 600.117188 19.230469 L 607.414063 0.246094 L 108.367188 0.246094 C 108.367188 0.246094 0.476563 0.246094 0.476563 108.144531 L 0.476563 714.457031 C 0.476563 714.457031 0.488281 780.324219 51.945313 809.144531 C 66.210938 816.890625 84.367188 821.855469 107.457031 821.855469 L 1433.121094 821.855469 C 1433.121094 821.855469 1541.019531 821.855469 1541.019531 713.949219 L 1541.019531 107.648438 C 1541.019531 107.648438 1541.019531 41.234375 1488.910156 12.617188 C 1474.75 5.046875 1456.800781 0.246094 1434.03125 0.246094 Z M 1148.53125 0.246094 "/>
</clipPath>
<clipPath id="clip9">
  <path d="M 0 451 L 1541.488281 451 L 1541.488281 552 L 0 552 Z M 0 451 "/>
</clipPath>
<clipPath id="clip10">
  <path d="M 1148.53125 0.246094 L 1141.238281 19.230469 L 600.117188 19.230469 L 607.414063 0.246094 L 108.367188 0.246094 C 108.367188 0.246094 0.476563 0.246094 0.476563 108.144531 L 0.476563 714.457031 C 0.476563 714.457031 0.488281 780.324219 51.945313 809.144531 C 66.210938 816.890625 84.367188 821.855469 107.457031 821.855469 L 1433.121094 821.855469 C 1433.121094 821.855469 1541.019531 821.855469 1541.019531 713.949219 L 1541.019531 107.648438 C 1541.019531 107.648438 1541.019531 41.234375 1488.910156 12.617188 C 1474.75 5.046875 1456.800781 0.246094 1434.03125 0.246094 Z M 1148.53125 0.246094 "/>
</clipPath>
<clipPath id="clip11">
  <path d="M 0 535 L 1541.488281 535 L 1541.488281 635 L 0 635 Z M 0 535 "/>
</clipPath>
<clipPath id="clip12">
  <path d="M 1148.53125 0.246094 L 1141.238281 19.230469 L 600.117188 19.230469 L 607.414063 0.246094 L 108.367188 0.246094 C 108.367188 0.246094 0.476563 0.246094 0.476563 108.144531 L 0.476563 714.457031 C 0.476563 714.457031 0.488281 780.324219 51.945313 809.144531 C 66.210938 816.890625 84.367188 821.855469 107.457031 821.855469 L 1433.121094 821.855469 C 1433.121094 821.855469 1541.019531 821.855469 1541.019531 713.949219 L 1541.019531 107.648438 C 1541.019531 107.648438 1541.019531 41.234375 1488.910156 12.617188 C 1474.75 5.046875 1456.800781 0.246094 1434.03125 0.246094 Z M 1148.53125 0.246094 "/>
</clipPath>
<clipPath id="clip13">
  <path d="M 0 14 L 1541.488281 14 L 1541.488281 115 L 0 115 Z M 0 14 "/>
</clipPath>
<clipPath id="clip14">
  <path d="M 1148.53125 0.246094 L 1141.238281 19.230469 L 600.117188 19.230469 L 607.414063 0.246094 L 108.367188 0.246094 C 108.367188 0.246094 0.476563 0.246094 0.476563 108.144531 L 0.476563 714.457031 C 0.476563 714.457031 0.488281 780.324219 51.945313 809.144531 C 66.210938 816.890625 84.367188 821.855469 107.457031 821.855469 L 1433.121094 821.855469 C 1433.121094 821.855469 1541.019531 821.855469 1541.019531 713.949219 L 1541.019531 107.648438 C 1541.019531 107.648438 1541.019531 41.234375 1488.910156 12.617188 C 1474.75 5.046875 1456.800781 0.246094 1434.03125 0.246094 Z M 1148.53125 0.246094 "/>
</clipPath>
<clipPath id="clip15">
  <path d="M 0 145 L 1541.488281 145 L 1541.488281 246 L 0 246 Z M 0 145 "/>
</clipPath>
<clipPath id="clip16">
  <path d="M 1148.53125 0.246094 L 1141.238281 19.230469 L 600.117188 19.230469 L 607.414063 0.246094 L 108.367188 0.246094 C 108.367188 0.246094 0.476563 0.246094 0.476563 108.144531 L 0.476563 714.457031 C 0.476563 714.457031 0.488281 780.324219 51.945313 809.144531 C 66.210938 816.890625 84.367188 821.855469 107.457031 821.855469 L 1433.121094 821.855469 C 1433.121094 821.855469 1541.019531 821.855469 1541.019531 713.949219 L 1541.019531 107.648438 C 1541.019531 107.648438 1541.019531 41.234375 1488.910156 12.617188 C 1474.75 5.046875 1456.800781 0.246094 1434.03125 0.246094 Z M 1148.53125 0.246094 "/>
</clipPath>
<clipPath id="clip17">
  <path d="M 0 276 L 1541.488281 276 L 1541.488281 377 L 0 377 Z M 0 276 "/>
</clipPath>
<clipPath id="clip18">
  <path d="M 1148.53125 0.246094 L 1141.238281 19.230469 L 600.117188 19.230469 L 607.414063 0.246094 L 108.367188 0.246094 C 108.367188 0.246094 0.476563 0.246094 0.476563 108.144531 L 0.476563 714.457031 C 0.476563 714.457031 0.488281 780.324219 51.945313 809.144531 C 66.210938 816.890625 84.367188 821.855469 107.457031 821.855469 L 1433.121094 821.855469 C 1433.121094 821.855469 1541.019531 821.855469 1541.019531 713.949219 L 1541.019531 107.648438 C 1541.019531 107.648438 1541.019531 41.234375 1488.910156 12.617188 C 1474.75 5.046875 1456.800781 0.246094 1434.03125 0.246094 Z M 1148.53125 0.246094 "/>
</clipPath>
<clipPath id="clip19">
  <path d="M 0 407 L 1541.488281 407 L 1541.488281 508 L 0 508 Z M 0 407 "/>
</clipPath>
<clipPath id="clip20">
  <path d="M 1148.53125 0.246094 L 1141.238281 19.230469 L 600.117188 19.230469 L 607.414063 0.246094 L 108.367188 0.246094 C 108.367188 0.246094 0.476563 0.246094 0.476563 108.144531 L 0.476563 714.457031 C 0.476563 714.457031 0.488281 780.324219 51.945313 809.144531 C 66.210938 816.890625 84.367188 821.855469 107.457031 821.855469 L 1433.121094 821.855469 C 1433.121094 821.855469 1541.019531 821.855469 1541.019531 713.949219 L 1541.019531 107.648438 C 1541.019531 107.648438 1541.019531 41.234375 1488.910156 12.617188 C 1474.75 5.046875 1456.800781 0.246094 1434.03125 0.246094 Z M 1148.53125 0.246094 "/>
</clipPath>
<clipPath id="clip21">
  <path d="M 0 0 L 1541.488281 0 L 1541.488281 28 L 0 28 Z M 0 0 "/>
</clipPath>
<clipPath id="clip22">
  <path d="M 1148.53125 0.246094 L 1141.238281 19.230469 L 600.117188 19.230469 L 607.414063 0.246094 L 108.367188 0.246094 C 108.367188 0.246094 0.476563 0.246094 0.476563 108.144531 L 0.476563 714.457031 C 0.476563 714.457031 0.488281 780.324219 51.945313 809.144531 C 66.210938 816.890625 84.367188 821.855469 107.457031 821.855469 L 1433.121094 821.855469 C 1433.121094 821.855469 1541.019531 821.855469 1541.019531 713.949219 L 1541.019531 107.648438 C 1541.019531 107.648438 1541.019531 41.234375 1488.910156 12.617188 C 1474.75 5.046875 1456.800781 0.246094 1434.03125 0.246094 Z M 1148.53125 0.246094 "/>
</clipPath>
<clipPath id="clip23">
  <path d="M 0 0 L 1541.488281 0 L 1541.488281 71 L 0 71 Z M 0 0 "/>
</clipPath>
<clipPath id="clip24">
  <path d="M 1148.53125 0.246094 L 1141.238281 19.230469 L 600.117188 19.230469 L 607.414063 0.246094 L 108.367188 0.246094 C 108.367188 0.246094 0.476563 0.246094 0.476563 108.144531 L 0.476563 714.457031 C 0.476563 714.457031 0.488281 780.324219 51.945313 809.144531 C 66.210938 816.890625 84.367188 821.855469 107.457031 821.855469 L 1433.121094 821.855469 C 1433.121094 821.855469 1541.019531 821.855469 1541.019531 713.949219 L 1541.019531 107.648438 C 1541.019531 107.648438 1541.019531 41.234375 1488.910156 12.617188 C 1474.75 5.046875 1456.800781 0.246094 1434.03125 0.246094 Z M 1148.53125 0.246094 "/>
</clipPath>
<clipPath id="clip25">
  <path d="M 0 102 L 1541.488281 102 L 1541.488281 202 L 0 202 Z M 0 102 "/>
</clipPath>
<clipPath id="clip26">
  <path d="M 1148.53125 0.246094 L 1141.238281 19.230469 L 600.117188 19.230469 L 607.414063 0.246094 L 108.367188 0.246094 C 108.367188 0.246094 0.476563 0.246094 0.476563 108.144531 L 0.476563 714.457031 C 0.476563 714.457031 0.488281 780.324219 51.945313 809.144531 C 66.210938 816.890625 84.367188 821.855469 107.457031 821.855469 L 1433.121094 821.855469 C 1433.121094 821.855469 1541.019531 821.855469 1541.019531 713.949219 L 1541.019531 107.648438 C 1541.019531 107.648438 1541.019531 41.234375 1488.910156 12.617188 C 1474.75 5.046875 1456.800781 0.246094 1434.03125 0.246094 Z M 1148.53125 0.246094 "/>
</clipPath>
<clipPath id="clip27">
  <path d="M 0 233 L 1541.488281 233 L 1541.488281 333 L 0 333 Z M 0 233 "/>
</clipPath>
<clipPath id="clip28">
  <path d="M 1148.53125 0.246094 L 1141.238281 19.230469 L 600.117188 19.230469 L 607.414063 0.246094 L 108.367188 0.246094 C 108.367188 0.246094 0.476563 0.246094 0.476563 108.144531 L 0.476563 714.457031 C 0.476563 714.457031 0.488281 780.324219 51.945313 809.144531 C 66.210938 816.890625 84.367188 821.855469 107.457031 821.855469 L 1433.121094 821.855469 C 1433.121094 821.855469 1541.019531 821.855469 1541.019531 713.949219 L 1541.019531 107.648438 C 1541.019531 107.648438 1541.019531 41.234375 1488.910156 12.617188 C 1474.75 5.046875 1456.800781 0.246094 1434.03125 0.246094 Z M 1148.53125 0.246094 "/>
</clipPath>
<clipPath id="clip29">
  <path d="M 0 364 L 1541.488281 364 L 1541.488281 464 L 0 464 Z M 0 364 "/>
</clipPath>
<clipPath id="clip30">
  <path d="M 1148.53125 0.246094 L 1141.238281 19.230469 L 600.117188 19.230469 L 607.414063 0.246094 L 108.367188 0.246094 C 108.367188 0.246094 0.476563 0.246094 0.476563 108.144531 L 0.476563 714.457031 C 0.476563 714.457031 0.488281 780.324219 51.945313 809.144531 C 66.210938 816.890625 84.367188 821.855469 107.457031 821.855469 L 1433.121094 821.855469 C 1433.121094 821.855469 1541.019531 821.855469 1541.019531 713.949219 L 1541.019531 107.648438 C 1541.019531 107.648438 1541.019531 41.234375 1488.910156 12.617188 C 1474.75 5.046875 1456.800781 0.246094 1434.03125 0.246094 Z M 1148.53125 0.246094 "/>
</clipPath>
<clipPath id="clip31">
  <path d="M 0 494 L 1541.488281 494 L 1541.488281 595 L 0 595 Z M 0 494 "/>
</clipPath>
<clipPath id="clip32">
  <path d="M 1148.53125 0.246094 L 1141.238281 19.230469 L 600.117188 19.230469 L 607.414063 0.246094 L 108.367188 0.246094 C 108.367188 0.246094 0.476563 0.246094 0.476563 108.144531 L 0.476563 714.457031 C 0.476563 714.457031 0.488281 780.324219 51.945313 809.144531 C 66.210938 816.890625 84.367188 821.855469 107.457031 821.855469 L 1433.121094 821.855469 C 1433.121094 821.855469 1541.019531 821.855469 1541.019531 713.949219 L 1541.019531 107.648438 C 1541.019531 107.648438 1541.019531 41.234375 1488.910156 12.617188 C 1474.75 5.046875 1456.800781 0.246094 1434.03125 0.246094 Z M 1148.53125 0.246094 "/>
</clipPath>
<clipPath id="clip33">
  <path d="M 355 0 L 1152 0 L 1152 657 L 355 657 Z M 355 0 "/>
</clipPath>
<clipPath id="clip34">
  <path d="M 107.921875 0 C 107.921875 0 0 0 0 107.882813 L 0 714.195313 C 0 714.195313 0 822.101563 107.921875 822.101563 L 1433.570313 822.101563 C 1433.570313 822.101563 1541.488281 822.101563 1541.488281 714.195313 L 1541.488281 107.882813 C 1541.488281 107.882813 1541.488281 0 1433.570313 0 Z M 107.921875 0 "/>
</clipPath>
<clipPath id="clip35">
  <path d="M 156 142 L 448 142 L 448 608 L 156 608 Z M 156 142 "/>
</clipPath>
<clipPath id="clip36">
  <path d="M 107.921875 0 C 107.921875 0 0 0 0 107.882813 L 0 714.195313 C 0 714.195313 0 822.101563 107.921875 822.101563 L 1433.570313 822.101563 C 1433.570313 822.101563 1541.488281 822.101563 1541.488281 714.195313 L 1541.488281 107.882813 C 1541.488281 107.882813 1541.488281 0 1433.570313 0 Z M 107.921875 0 "/>
</clipPath>
<clipPath id="clip37">
  <path d="M 943 142 L 1389 142 L 1389 608 L 943 608 Z M 943 142 "/>
</clipPath>
<clipPath id="clip38">
  <path d="M 107.921875 0 C 107.921875 0 0 0 0 107.882813 L 0 714.195313 C 0 714.195313 0 822.101563 107.921875 822.101563 L 1433.570313 822.101563 C 1433.570313 822.101563 1541.488281 822.101563 1541.488281 714.195313 L 1541.488281 107.882813 C 1541.488281 107.882813 1541.488281 0 1433.570313 0 Z M 107.921875 0 "/>
</clipPath>
<clipPath id="clip39">
  <path d="M 156 709 L 1392 709 L 1392 766 L 156 766 Z M 156 709 "/>
</clipPath>
<clipPath id="clip40">
  <path d="M 107.921875 0 C 107.921875 0 0 0 0 107.882813 L 0 714.195313 C 0 714.195313 0 822.101563 107.921875 822.101563 L 1433.570313 822.101563 C 1433.570313 822.101563 1541.488281 822.101563 1541.488281 714.195313 L 1541.488281 107.882813 C 1541.488281 107.882813 1541.488281 0 1433.570313 0 Z M 107.921875 0 "/>
</clipPath>
<clipPath id="clip41">
  <path d="M 1390 551 L 1447 551 L 1447 608 L 1390 608 Z M 1390 551 "/>
</clipPath>
<clipPath id="clip42">
  <path d="M 107.921875 0 C 107.921875 0 0 0 0 107.882813 L 0 714.195313 C 0 714.195313 0 822.101563 107.921875 822.101563 L 1433.570313 822.101563 C 1433.570313 822.101563 1541.488281 822.101563 1541.488281 714.195313 L 1541.488281 107.882813 C 1541.488281 107.882813 1541.488281 0 1433.570313 0 Z M 107.921875 0 "/>
</clipPath>
</defs>
<g id="surface1">
<g clip-path="url(#clip1)" clip-rule="nonzero">
<g clip-path="url(#clip2)" clip-rule="nonzero">
<rect x="0" y="0" width="1541.49" height="822.1" style="fill:rgb(53.69873%,7.798767%,21.598816%);fill-opacity:1;stroke:none;"/>
</g>
</g>
<g clip-path="url(#clip3)" clip-rule="nonzero">
<g clip-path="url(#clip4)" clip-rule="nonzero">
<path style=" stroke:none;fill-rule:nonzero;fill:rgb(87.799072%,76.499939%,76.098633%);fill-opacity:1;" d="M 1781.960938 158.191406 C 1680.71875 158.191406 1629.289063 134.097656 1579.539063 110.808594 C 1530.339844 87.753906 1479.46875 63.929688 1379.449219 63.929688 C 1279.421875 63.929688 1228.558594 87.753906 1179.351563 110.808594 C 1129.609375 134.097656 1078.171875 158.191406 976.949219 158.191406 C 875.714844 158.191406 824.289063 134.097656 774.554688 110.808594 C 725.34375 87.753906 674.480469 63.929688 574.464844 63.929688 C 474.449219 63.929688 423.585938 87.753906 374.390625 110.808594 C 324.644531 134.097656 273.210938 158.191406 172.007813 158.191406 C 70.773438 158.191406 19.339844 134.097656 -30.394531 110.808594 C -79.597656 87.753906 -130.460938 63.929688 -230.480469 63.929688 L -230.480469 58.503906 C -129.261719 58.503906 -77.828125 82.574219 -28.082031 105.871094 C 21.109375 128.921875 71.976563 152.757813 172.007813 152.757813 C 272.007813 152.757813 322.875 128.921875 372.078125 105.871094 C 421.8125 82.574219 473.242188 58.503906 574.464844 58.503906 C 675.683594 58.503906 727.113281 82.574219 776.847656 105.871094 C 826.054688 128.921875 876.9375 152.757813 976.949219 152.757813 C 1076.96875 152.757813 1127.851563 128.921875 1177.058594 105.871094 C 1226.789063 82.574219 1278.21875 58.503906 1379.449219 58.503906 C 1480.671875 58.503906 1532.101563 82.574219 1581.851563 105.871094 C 1631.058594 128.921875 1681.929688 152.757813 1781.960938 152.757813 L 1781.960938 158.191406 "/>
</g>
</g>
<g clip-path="url(#clip5)" clip-rule="nonzero">
<g clip-path="url(#clip6)" clip-rule="nonzero">
<path style=" stroke:none;fill-rule:nonzero;fill:rgb(73.699951%,48.999023%,50.19989%);fill-opacity:1;" d="M 1781.960938 289.132813 C 1680.71875 289.132813 1629.289063 265.042969 1579.539063 241.75 C 1530.339844 218.695313 1479.46875 194.867188 1379.449219 194.867188 C 1279.421875 194.867188 1228.558594 218.695313 1179.351563 241.75 C 1129.609375 265.042969 1078.171875 289.132813 976.949219 289.132813 C 875.714844 289.132813 824.289063 265.042969 774.554688 241.75 C 725.34375 218.695313 674.480469 194.867188 574.464844 194.867188 C 474.449219 194.867188 423.585938 218.695313 374.390625 241.75 C 324.644531 265.042969 273.210938 289.132813 172.007813 289.132813 C 70.773438 289.132813 19.339844 265.042969 -30.394531 241.75 C -79.597656 218.695313 -130.460938 194.867188 -230.480469 194.867188 L -230.480469 189.4375 C -129.261719 189.4375 -77.828125 213.515625 -28.082031 236.8125 C 21.109375 259.867188 71.976563 283.6875 172.007813 283.6875 C 272.007813 283.6875 322.875 259.867188 372.078125 236.8125 C 421.8125 213.515625 473.242188 189.4375 574.464844 189.4375 C 675.683594 189.4375 727.113281 213.515625 776.847656 236.8125 C 826.054688 259.867188 876.9375 283.6875 976.949219 283.6875 C 1076.96875 283.6875 1127.851563 259.867188 1177.058594 236.8125 C 1226.789063 213.515625 1278.21875 189.4375 1379.449219 189.4375 C 1480.671875 189.4375 1532.101563 213.515625 1581.851563 236.8125 C 1631.058594 259.867188 1681.929688 283.6875 1781.960938 283.6875 L 1781.960938 289.132813 "/>
</g>
</g>
<g clip-path="url(#clip7)" clip-rule="nonzero">
<g clip-path="url(#clip8)" clip-rule="nonzero">
<path style=" stroke:none;fill-rule:nonzero;fill:rgb(67.098999%,37.998962%,40.39917%);fill-opacity:1;" d="M 1781.960938 420.085938 C 1680.71875 420.085938 1629.289063 395.988281 1579.539063 372.695313 C 1530.339844 349.640625 1479.46875 325.816406 1379.449219 325.816406 C 1279.421875 325.816406 1228.558594 349.640625 1179.351563 372.695313 C 1129.609375 395.988281 1078.171875 420.085938 976.949219 420.085938 C 875.714844 420.085938 824.289063 395.988281 774.554688 372.695313 C 725.34375 349.640625 674.480469 325.816406 574.464844 325.816406 C 474.449219 325.816406 423.585938 349.640625 374.390625 372.695313 C 324.644531 395.988281 273.210938 420.085938 172.007813 420.085938 C 70.773438 420.085938 19.339844 395.988281 -30.394531 372.695313 C -79.597656 349.640625 -130.460938 325.816406 -230.480469 325.816406 L -230.480469 320.394531 C -129.261719 320.394531 -77.828125 344.460938 -28.082031 367.773438 C 21.109375 390.808594 71.976563 414.652344 172.007813 414.652344 C 272.007813 414.652344 322.875 390.808594 372.078125 367.773438 C 421.8125 344.460938 473.242188 320.394531 574.464844 320.394531 C 675.683594 320.394531 727.113281 344.460938 776.847656 367.773438 C 826.054688 390.808594 876.9375 414.652344 976.949219 414.652344 C 1076.96875 414.652344 1127.851563 390.808594 1177.058594 367.773438 C 1226.789063 344.460938 1278.21875 320.394531 1379.449219 320.394531 C 1480.671875 320.394531 1532.101563 344.460938 1581.851563 367.773438 C 1631.058594 390.808594 1681.929688 414.652344 1781.960938 414.652344 L 1781.960938 420.085938 "/>
</g>
</g>
<g clip-path="url(#clip9)" clip-rule="nonzero">
<g clip-path="url(#clip10)" clip-rule="nonzero">
<path style=" stroke:none;fill-rule:nonzero;fill:rgb(61.199951%,25.498962%,31.399536%);fill-opacity:1;" d="M 1781.960938 551.027344 C 1680.71875 551.027344 1629.289063 526.933594 1579.539063 503.632813 C 1530.339844 480.601563 1479.46875 456.742188 1379.449219 456.742188 C 1279.421875 456.742188 1228.558594 480.601563 1179.351563 503.632813 C 1129.609375 526.933594 1078.171875 551.027344 976.949219 551.027344 C 875.714844 551.027344 824.289063 526.933594 774.554688 503.632813 C 725.34375 480.601563 674.480469 456.742188 574.464844 456.742188 C 474.449219 456.742188 423.585938 480.601563 374.390625 503.632813 C 324.644531 526.933594 273.210938 551.027344 172.007813 551.027344 C 70.773438 551.027344 19.339844 526.933594 -30.394531 503.632813 C -79.597656 480.601563 -130.460938 456.742188 -230.480469 456.742188 L -230.480469 451.332031 C -129.261719 451.332031 -77.828125 475.417969 -28.082031 498.71875 C 21.109375 521.761719 71.976563 545.582031 172.007813 545.582031 C 272.007813 545.582031 322.875 521.761719 372.078125 498.71875 C 421.8125 475.417969 473.242188 451.332031 574.464844 451.332031 C 675.683594 451.332031 727.113281 475.417969 776.847656 498.71875 C 826.054688 521.761719 876.9375 545.582031 976.949219 545.582031 C 1076.96875 545.582031 1127.851563 521.761719 1177.058594 498.71875 C 1226.789063 475.417969 1278.21875 451.332031 1379.449219 451.332031 C 1480.671875 451.332031 1532.101563 475.417969 1581.851563 498.71875 C 1631.058594 521.761719 1681.929688 545.582031 1781.960938 545.582031 L 1781.960938 551.027344 "/>
</g>
</g>
<g clip-path="url(#clip11)" clip-rule="nonzero">
<g clip-path="url(#clip12)" clip-rule="nonzero">
<path style=" stroke:none;fill-rule:nonzero;fill:rgb(57.299805%,16.899109%,25.898743%);fill-opacity:1;" d="M 1781.960938 634.695313 C 1680.71875 634.695313 1629.289063 610.605469 1579.539063 587.316406 C 1530.339844 564.253906 1479.46875 540.433594 1379.449219 540.433594 C 1279.421875 540.433594 1228.558594 564.253906 1179.351563 587.316406 C 1129.609375 610.605469 1078.171875 634.695313 976.949219 634.695313 C 875.714844 634.695313 824.289063 610.605469 774.554688 587.316406 C 725.34375 564.253906 674.480469 540.433594 574.464844 540.433594 C 474.449219 540.433594 423.585938 564.253906 374.390625 587.316406 C 324.644531 610.605469 273.210938 634.695313 172.007813 634.695313 C 70.773438 634.695313 19.339844 610.605469 -30.394531 587.316406 C -79.597656 564.253906 -130.460938 540.433594 -230.480469 540.433594 L -230.480469 535.003906 C -129.261719 535.003906 -77.828125 559.082031 -28.082031 582.390625 C 21.109375 605.417969 71.976563 629.253906 172.007813 629.253906 C 272.007813 629.253906 322.875 605.417969 372.078125 582.390625 C 421.8125 559.082031 473.242188 535.003906 574.464844 535.003906 C 675.683594 535.003906 727.113281 559.082031 776.847656 582.390625 C 826.054688 605.417969 876.9375 629.253906 976.949219 629.253906 C 1076.96875 629.253906 1127.851563 605.417969 1177.058594 582.390625 C 1226.789063 559.082031 1278.21875 535.003906 1379.449219 535.003906 C 1480.671875 535.003906 1532.101563 559.082031 1581.851563 582.390625 C 1631.058594 605.417969 1681.929688 629.253906 1781.960938 629.253906 L 1781.960938 634.695313 "/>
</g>
</g>
<g clip-path="url(#clip13)" clip-rule="nonzero">
<g clip-path="url(#clip14)" clip-rule="nonzero">
<path style=" stroke:none;fill-rule:nonzero;fill:rgb(93.699646%,87.098694%,87.098694%);fill-opacity:1;" d="M 1781.960938 114.535156 C 1680.71875 114.535156 1629.289063 90.449219 1579.539063 67.15625 C 1530.339844 44.101563 1479.46875 20.269531 1379.449219 20.269531 C 1279.421875 20.269531 1228.558594 44.101563 1179.351563 67.15625 C 1129.609375 90.449219 1078.171875 114.535156 976.949219 114.535156 C 875.714844 114.535156 824.289063 90.449219 774.554688 67.15625 C 725.34375 44.101563 674.480469 20.269531 574.464844 20.269531 C 474.449219 20.269531 423.585938 44.101563 374.390625 67.15625 C 324.644531 90.449219 273.210938 114.535156 172.007813 114.535156 C 70.773438 114.535156 19.339844 90.449219 -30.394531 67.15625 C -79.597656 44.101563 -130.460938 20.269531 -230.480469 20.269531 L -230.480469 14.847656 C -129.261719 14.847656 -77.828125 38.925781 -28.082031 62.21875 C 21.109375 85.273438 71.976563 109.097656 172.007813 109.097656 C 272.007813 109.097656 322.875 85.273438 372.078125 62.21875 C 421.8125 38.925781 473.242188 14.847656 574.464844 14.847656 C 675.683594 14.847656 727.113281 38.925781 776.847656 62.21875 C 826.054688 85.273438 876.9375 109.097656 976.949219 109.097656 C 1076.96875 109.097656 1127.851563 85.273438 1177.058594 62.21875 C 1226.789063 38.925781 1278.21875 14.847656 1379.449219 14.847656 C 1480.671875 14.847656 1532.101563 38.925781 1581.851563 62.21875 C 1631.058594 85.273438 1681.929688 109.097656 1781.960938 109.097656 L 1781.960938 114.535156 "/>
</g>
</g>
<g clip-path="url(#clip15)" clip-rule="nonzero">
<g clip-path="url(#clip16)" clip-rule="nonzero">
<path style=" stroke:none;fill-rule:nonzero;fill:rgb(77.2995%,57.598877%,57.998657%);fill-opacity:1;" d="M 1781.960938 245.480469 C 1680.71875 245.480469 1629.289063 221.394531 1579.539063 198.101563 C 1530.339844 175.046875 1479.46875 151.222656 1379.449219 151.222656 C 1279.421875 151.222656 1228.558594 175.046875 1179.351563 198.101563 C 1129.609375 221.394531 1078.171875 245.480469 976.949219 245.480469 C 875.714844 245.480469 824.289063 221.394531 774.554688 198.101563 C 725.34375 175.046875 674.480469 151.222656 574.464844 151.222656 C 474.449219 151.222656 423.585938 175.046875 374.390625 198.101563 C 324.644531 221.394531 273.210938 245.480469 172.007813 245.480469 C 70.773438 245.480469 19.339844 221.394531 -30.394531 198.101563 C -79.597656 175.046875 -130.460938 151.222656 -230.480469 151.222656 L -230.480469 145.796875 C -129.261719 145.796875 -77.828125 169.871094 -28.082031 193.179688 C 21.109375 216.21875 71.976563 240.046875 172.007813 240.046875 C 272.007813 240.046875 322.875 216.21875 372.078125 193.179688 C 421.8125 169.871094 473.242188 145.796875 574.464844 145.796875 C 675.683594 145.796875 727.113281 169.871094 776.847656 193.179688 C 826.054688 216.21875 876.9375 240.046875 976.949219 240.046875 C 1076.96875 240.046875 1127.851563 216.21875 1177.058594 193.179688 C 1226.789063 169.871094 1278.21875 145.796875 1379.449219 145.796875 C 1480.671875 145.796875 1532.101563 169.871094 1581.851563 193.179688 C 1631.058594 216.21875 1681.929688 240.046875 1781.960938 240.046875 L 1781.960938 245.480469 "/>
</g>
</g>
<g clip-path="url(#clip17)" clip-rule="nonzero">
<g clip-path="url(#clip18)" clip-rule="nonzero">
<path style=" stroke:none;fill-rule:nonzero;fill:rgb(68.998718%,41.598511%,43.099976%);fill-opacity:1;" d="M 1781.960938 376.425781 C 1680.71875 376.425781 1629.289063 352.339844 1579.539063 329.046875 C 1530.339844 305.992188 1479.46875 282.15625 1379.449219 282.15625 C 1279.421875 282.15625 1228.558594 305.992188 1179.351563 329.046875 C 1129.609375 352.339844 1078.171875 376.425781 976.949219 376.425781 C 875.714844 376.425781 824.289063 352.339844 774.554688 329.046875 C 725.34375 305.992188 674.480469 282.15625 574.464844 282.15625 C 474.449219 282.15625 423.585938 305.992188 374.390625 329.046875 C 324.644531 352.339844 273.210938 376.425781 172.007813 376.425781 C 70.773438 376.425781 19.339844 352.339844 -30.394531 329.046875 C -79.597656 305.992188 -130.460938 282.15625 -230.480469 282.15625 L -230.480469 276.738281 C -129.261719 276.738281 -77.828125 300.816406 -28.082031 324.113281 C 21.109375 347.164063 71.976563 370.988281 172.007813 370.988281 C 272.007813 370.988281 322.875 347.164063 372.078125 324.113281 C 421.8125 300.816406 473.242188 276.738281 574.464844 276.738281 C 675.683594 276.738281 727.113281 300.816406 776.847656 324.113281 C 826.054688 347.164063 876.9375 370.988281 976.949219 370.988281 C 1076.96875 370.988281 1127.851563 347.164063 1177.058594 324.113281 C 1226.789063 300.816406 1278.21875 276.738281 1379.449219 276.738281 C 1480.671875 276.738281 1532.101563 300.816406 1581.851563 324.113281 C 1631.058594 347.164063 1681.929688 370.988281 1781.960938 370.988281 L 1781.960938 376.425781 "/>
</g>
</g>
<g clip-path="url(#clip19)" clip-rule="nonzero">
<g clip-path="url(#clip20)" clip-rule="nonzero">
<path style=" stroke:none;fill-rule:nonzero;fill:rgb(63.499451%,29.798889%,34.098816%);fill-opacity:1;" d="M 1781.960938 507.371094 C 1680.71875 507.371094 1629.289063 483.292969 1579.539063 459.976563 C 1530.339844 436.941406 1479.46875 413.105469 1379.449219 413.105469 C 1279.421875 413.105469 1228.558594 436.941406 1179.351563 459.976563 C 1129.609375 483.292969 1078.171875 507.371094 976.949219 507.371094 C 875.714844 507.371094 824.289063 483.292969 774.554688 459.976563 C 725.34375 436.941406 674.480469 413.105469 574.464844 413.105469 C 474.449219 413.105469 423.585938 436.941406 374.390625 459.976563 C 324.644531 483.292969 273.210938 507.371094 172.007813 507.371094 C 70.773438 507.371094 19.339844 483.292969 -30.394531 459.976563 C -79.597656 436.941406 -130.460938 413.105469 -230.480469 413.105469 L -230.480469 407.683594 C -129.261719 407.683594 -77.828125 431.761719 -28.082031 455.074219 C 21.109375 478.109375 71.976563 501.933594 172.007813 501.933594 C 272.007813 501.933594 322.875 478.109375 372.078125 455.074219 C 421.8125 431.761719 473.242188 407.683594 574.464844 407.683594 C 675.683594 407.683594 727.113281 431.761719 776.847656 455.074219 C 826.054688 478.109375 876.9375 501.933594 976.949219 501.933594 C 1076.96875 501.933594 1127.851563 478.109375 1177.058594 455.074219 C 1226.789063 431.761719 1278.21875 407.683594 1379.449219 407.683594 C 1480.671875 407.683594 1532.101563 431.761719 1581.851563 455.074219 C 1631.058594 478.109375 1681.929688 501.933594 1781.960938 501.933594 L 1781.960938 507.371094 "/>
</g>
</g>
<g clip-path="url(#clip21)" clip-rule="nonzero">
<g clip-path="url(#clip22)" clip-rule="nonzero">
<path style=" stroke:none;fill-rule:nonzero;fill:rgb(100%,100%,100%);fill-opacity:1;" d="M 1781.960938 27.242188 C 1680.71875 27.242188 1629.289063 3.15625 1579.539063 -20.136719 C 1530.339844 -43.191406 1479.46875 -67.023438 1379.449219 -67.023438 C 1279.421875 -67.023438 1228.558594 -43.191406 1179.351563 -20.136719 C 1129.609375 3.15625 1078.171875 27.242188 976.949219 27.242188 C 875.714844 27.242188 824.289063 3.15625 774.554688 -20.136719 C 725.34375 -43.191406 674.480469 -67.023438 574.464844 -67.023438 C 474.449219 -67.023438 423.585938 -43.191406 374.390625 -20.136719 C 324.644531 3.15625 273.210938 27.242188 172.007813 27.242188 C 70.773438 27.242188 19.339844 3.15625 -30.394531 -20.136719 C -79.597656 -43.191406 -130.460938 -67.023438 -230.480469 -67.023438 L -230.480469 -72.449219 C -129.261719 -72.449219 -77.828125 -48.371094 -28.082031 -25.0625 C 21.109375 -2.019531 71.976563 21.800781 172.007813 21.800781 C 272.007813 21.800781 322.875 -2.019531 372.078125 -25.0625 C 421.8125 -48.371094 473.242188 -72.449219 574.464844 -72.449219 C 675.683594 -72.449219 727.113281 -48.371094 776.847656 -25.0625 C 826.054688 -2.019531 876.9375 21.800781 976.949219 21.800781 C 1076.96875 21.800781 1127.851563 -2.019531 1177.058594 -25.0625 C 1226.789063 -48.371094 1278.21875 -72.449219 1379.449219 -72.449219 C 1480.671875 -72.449219 1532.101563 -48.371094 1581.851563 -25.0625 C 1631.058594 -2.019531 1681.929688 21.800781 1781.960938 21.800781 L 1781.960938 27.242188 "/>
</g>
</g>
<g clip-path="url(#clip23)" clip-rule="nonzero">
<g clip-path="url(#clip24)" clip-rule="nonzero">
<path style=" stroke:none;fill-rule:nonzero;fill:rgb(100%,100%,100%);fill-opacity:1;" d="M 1781.960938 70.890625 C 1680.71875 70.890625 1629.289063 46.800781 1579.539063 23.507813 C 1530.339844 0.453125 1479.46875 -23.367188 1379.449219 -23.367188 C 1279.421875 -23.367188 1228.558594 0.453125 1179.351563 23.507813 C 1129.609375 46.800781 1078.171875 70.890625 976.949219 70.890625 C 875.714844 70.890625 824.289063 46.800781 774.554688 23.507813 C 725.34375 0.453125 674.480469 -23.367188 574.464844 -23.367188 C 474.449219 -23.367188 423.585938 0.453125 374.390625 23.507813 C 324.644531 46.800781 273.210938 70.890625 172.007813 70.890625 C 70.773438 70.890625 19.339844 46.800781 -30.394531 23.507813 C -79.597656 0.453125 -130.460938 -23.367188 -230.480469 -23.367188 L -230.480469 -28.796875 C -129.261719 -28.796875 -77.828125 -4.71875 -28.082031 18.574219 C 21.109375 41.621094 71.976563 65.453125 172.007813 65.453125 C 272.007813 65.453125 322.875 41.621094 372.078125 18.574219 C 421.8125 -4.71875 473.242188 -28.796875 574.464844 -28.796875 C 675.683594 -28.796875 727.113281 -4.71875 776.847656 18.574219 C 826.054688 41.621094 876.9375 65.453125 976.949219 65.453125 C 1076.96875 65.453125 1127.851563 41.621094 1177.058594 18.574219 C 1226.789063 -4.71875 1278.21875 -28.796875 1379.449219 -28.796875 C 1480.671875 -28.796875 1532.101563 -4.71875 1581.851563 18.574219 C 1631.058594 41.621094 1681.929688 65.453125 1781.960938 65.453125 L 1781.960938 70.890625 "/>
</g>
</g>
<g clip-path="url(#clip25)" clip-rule="nonzero">
<g clip-path="url(#clip26)" clip-rule="nonzero">
<path style=" stroke:none;fill-rule:nonzero;fill:rgb(82.699585%,67.098999%,66.699219%);fill-opacity:1;" d="M 1781.960938 201.832031 C 1680.71875 201.832031 1629.289063 177.75 1579.539063 154.453125 C 1530.339844 131.402344 1479.46875 107.582031 1379.449219 107.582031 C 1279.421875 107.582031 1228.558594 131.402344 1179.351563 154.453125 C 1129.609375 177.75 1078.171875 201.832031 976.949219 201.832031 C 875.714844 201.832031 824.289063 177.75 774.554688 154.453125 C 725.34375 131.402344 674.480469 107.582031 574.464844 107.582031 C 474.449219 107.582031 423.585938 131.402344 374.390625 154.453125 C 324.644531 177.75 273.210938 201.832031 172.007813 201.832031 C 70.773438 201.832031 19.339844 177.75 -30.394531 154.453125 C -79.597656 131.402344 -130.460938 107.582031 -230.480469 107.582031 L -230.480469 102.144531 C -129.261719 102.144531 -77.828125 126.226563 -28.082031 149.535156 C 21.109375 172.570313 71.976563 196.398438 172.007813 196.398438 C 272.007813 196.398438 322.875 172.570313 372.078125 149.535156 C 421.8125 126.226563 473.242188 102.144531 574.464844 102.144531 C 675.683594 102.144531 727.113281 126.226563 776.847656 149.535156 C 826.054688 172.570313 876.9375 196.398438 976.949219 196.398438 C 1076.96875 196.398438 1127.851563 172.570313 1177.058594 149.535156 C 1226.789063 126.226563 1278.21875 102.144531 1379.449219 102.144531 C 1480.671875 102.144531 1532.101563 126.226563 1581.851563 149.535156 C 1631.058594 172.570313 1681.929688 196.398438 1781.960938 196.398438 L 1781.960938 201.832031 "/>
</g>
</g>
<g clip-path="url(#clip27)" clip-rule="nonzero">
<g clip-path="url(#clip28)" clip-rule="nonzero">
<path style=" stroke:none;fill-rule:nonzero;fill:rgb(71.398926%,45.098877%,46.699524%);fill-opacity:1;" d="M 1781.960938 332.785156 C 1680.71875 332.785156 1629.289063 308.691406 1579.539063 285.394531 C 1530.339844 262.347656 1479.46875 238.523438 1379.449219 238.523438 C 1279.421875 238.523438 1228.558594 262.347656 1179.351563 285.394531 C 1129.609375 308.691406 1078.171875 332.785156 976.949219 332.785156 C 875.714844 332.785156 824.289063 308.691406 774.554688 285.394531 C 725.34375 262.347656 674.480469 238.523438 574.464844 238.523438 C 474.449219 238.523438 423.585938 262.347656 374.390625 285.394531 C 324.644531 308.691406 273.210938 332.785156 172.007813 332.785156 C 70.773438 332.785156 19.339844 308.691406 -30.394531 285.394531 C -79.597656 262.347656 -130.460938 238.523438 -230.480469 238.523438 L -230.480469 233.097656 C -129.261719 233.097656 -77.828125 257.171875 -28.082031 280.464844 C 21.109375 303.515625 71.976563 327.347656 172.007813 327.347656 C 272.007813 327.347656 322.875 303.515625 372.078125 280.464844 C 421.8125 257.171875 473.242188 233.097656 574.464844 233.097656 C 675.683594 233.097656 727.113281 257.171875 776.847656 280.464844 C 826.054688 303.515625 876.9375 327.347656 976.949219 327.347656 C 1076.96875 327.347656 1127.851563 303.515625 1177.058594 280.464844 C 1226.789063 257.171875 1278.21875 233.097656 1379.449219 233.097656 C 1480.671875 233.097656 1532.101563 257.171875 1581.851563 280.464844 C 1631.058594 303.515625 1681.929688 327.347656 1781.960938 327.347656 L 1781.960938 332.785156 "/>
</g>
</g>
<g clip-path="url(#clip29)" clip-rule="nonzero">
<g clip-path="url(#clip30)" clip-rule="nonzero">
<path style=" stroke:none;fill-rule:nonzero;fill:rgb(65.098572%,33.699036%,36.898804%);fill-opacity:1;" d="M 1781.960938 463.714844 C 1680.71875 463.714844 1629.289063 439.636719 1579.539063 416.335938 C 1530.339844 393.289063 1479.46875 369.457031 1379.449219 369.457031 C 1279.421875 369.457031 1228.558594 393.289063 1179.351563 416.335938 C 1129.609375 439.636719 1078.171875 463.714844 976.949219 463.714844 C 875.714844 463.714844 824.289063 439.636719 774.554688 416.335938 C 725.34375 393.289063 674.480469 369.457031 574.464844 369.457031 C 474.449219 369.457031 423.585938 393.289063 374.390625 416.335938 C 324.644531 439.636719 273.210938 463.714844 172.007813 463.714844 C 70.773438 463.714844 19.339844 439.636719 -30.394531 416.335938 C -79.597656 393.289063 -130.460938 369.457031 -230.480469 369.457031 L -230.480469 364.03125 C -129.261719 364.03125 -77.828125 388.109375 -28.082031 411.417969 C 21.109375 434.453125 71.976563 458.273438 172.007813 458.273438 C 272.007813 458.273438 322.875 434.453125 372.078125 411.417969 C 421.8125 388.109375 473.242188 364.03125 574.464844 364.03125 C 675.683594 364.03125 727.113281 388.109375 776.847656 411.417969 C 826.054688 434.453125 876.9375 458.273438 976.949219 458.273438 C 1076.96875 458.273438 1127.851563 434.453125 1177.058594 411.417969 C 1226.789063 388.109375 1278.21875 364.03125 1379.449219 364.03125 C 1480.671875 364.03125 1532.101563 388.109375 1581.851563 411.417969 C 1631.058594 434.453125 1681.929688 458.273438 1781.960938 458.273438 L 1781.960938 463.714844 "/>
</g>
</g>
<g clip-path="url(#clip31)" clip-rule="nonzero">
<g clip-path="url(#clip32)" clip-rule="nonzero">
<path style=" stroke:none;fill-rule:nonzero;fill:rgb(59.199524%,21.598816%,28.599548%);fill-opacity:1;" d="M 1781.960938 594.667969 C 1680.71875 594.667969 1629.289063 570.574219 1579.539063 547.28125 C 1530.339844 524.257813 1479.46875 500.417969 1379.449219 500.417969 C 1279.421875 500.417969 1228.558594 524.257813 1179.351563 547.28125 C 1129.609375 570.574219 1078.171875 594.667969 976.949219 594.667969 C 875.714844 594.667969 824.289063 570.574219 774.554688 547.28125 C 725.34375 524.257813 674.480469 500.417969 574.464844 500.417969 C 474.449219 500.417969 423.585938 524.257813 374.390625 547.28125 C 324.644531 570.574219 273.210938 594.667969 172.007813 594.667969 C 70.773438 594.667969 19.339844 570.574219 -30.394531 547.28125 C -79.597656 524.257813 -130.460938 500.417969 -230.480469 500.417969 L -230.480469 494.976563 C -129.261719 494.976563 -77.828125 519.054688 -28.082031 542.359375 C 21.109375 565.386719 71.976563 589.226563 172.007813 589.226563 C 272.007813 589.226563 322.875 565.386719 372.078125 542.359375 C 421.8125 519.054688 473.242188 494.976563 574.464844 494.976563 C 675.683594 494.976563 727.113281 519.054688 776.847656 542.359375 C 826.054688 565.386719 876.9375 589.226563 976.949219 589.226563 C 1076.96875 589.226563 1127.851563 565.386719 1177.058594 542.359375 C 1226.789063 519.054688 1278.21875 494.976563 1379.449219 494.976563 C 1480.671875 494.976563 1532.101563 519.054688 1581.851563 542.359375 C 1631.058594 565.386719 1681.929688 589.226563 1781.960938 589.226563 L 1781.960938 594.667969 "/>
</g>
</g>
<g clip-path="url(#clip33)" clip-rule="nonzero">
<g clip-path="url(#clip34)" clip-rule="nonzero">
<path style=" stroke:none;fill-rule:nonzero;fill:rgb(100%,100%,100%);fill-opacity:1;" d="M 900.46875 494.089844 L 900.46875 583.796875 C 893.886719 579.347656 890.230469 576.796875 883.644531 576.796875 C 870.484375 576.796875 825.117188 616.882813 746.824219 616.882813 C 612.195313 616.882813 512.699219 516.992188 512.699219 376.386719 C 512.699219 231.320313 618.054688 133.332031 748.289063 133.332031 C 821.449219 133.332031 837.546875 156.882813 863.898438 156.882813 C 870.484375 156.882813 874.140625 154.328125 880.726563 149.882813 L 880.726563 239.597656 C 874.140625 234.5 840.484375 181.054688 760.71875 181.054688 C 660.484375 181.054688 585.863281 262.488281 585.863281 379.5625 C 585.863281 490.277344 654.628906 569.164063 754.148438 569.164063 C 820.726563 569.164063 877.808594 523.367188 900.46875 494.089844 M 1151.039063 -5.171875 L 609.867188 -5.171875 L 355.824219 656.640625 L 896.988281 656.640625 L 1151.039063 -5.171875 "/>
</g>
</g>
<g clip-path="url(#clip35)" clip-rule="nonzero">
<g clip-path="url(#clip36)" clip-rule="nonzero">
<path style=" stroke:none;fill-rule:nonzero;fill:rgb(100%,100%,100%);fill-opacity:1;" d="M 173.914063 568.523438 C 173.914063 595.238281 169.449219 598.4375 156.730469 607.339844 L 254.707031 607.339844 C 241.972656 598.4375 237.539063 595.238281 237.539063 568.523438 L 237.539063 389.109375 L 387.046875 389.109375 C 420.769531 389.109375 420.769531 396.113281 427.132813 403.742188 L 427.132813 329.941406 C 419.5 338.84375 418.222656 344.574219 385.136719 344.574219 L 237.539063 344.574219 L 237.539063 187.414063 L 404.230469 187.414063 C 439.226563 187.414063 441.128906 200.136719 447.484375 207.789063 L 447.484375 142.878906 L 156.730469 142.878906 C 169.449219 151.785156 173.914063 154.972656 173.914063 181.6875 L 173.914063 568.523438 "/>
</g>
</g>
<g clip-path="url(#clip37)" clip-rule="nonzero">
<g clip-path="url(#clip38)" clip-rule="nonzero">
<path style=" stroke:none;fill-rule:nonzero;fill:rgb(100%,100%,100%);fill-opacity:1;" d="M 1079.269531 408.828125 L 1156.261719 205.859375 L 1233.890625 408.828125 Z M 971.113281 569.164063 C 959.027344 600.960938 949.484375 601.617188 943.121094 607.339844 L 1030.910156 607.339844 C 1028.378906 601.617188 1016.921875 604.800781 1016.921875 583.796875 C 1016.921875 578.699219 1018.191406 575.519531 1020.738281 568.523438 L 1064.640625 450.175781 L 1248.511719 450.175781 L 1294.96875 572.335938 C 1296.871094 578.070313 1299.398438 583.15625 1299.398438 587.621094 C 1299.398438 600.339844 1289.871094 601.617188 1284.769531 607.339844 L 1388.488281 607.339844 C 1375.769531 598.4375 1371.941406 597.148438 1362.390625 572.335938 L 1197.621094 142.886719 L 1115.53125 142.886719 C 1119.339844 147.976563 1124.449219 153.691406 1124.449219 162.597656 C 1124.449219 167.6875 1123.179688 173.414063 1121.261719 177.871094 L 971.113281 569.164063 "/>
</g>
</g>
<g clip-path="url(#clip39)" clip-rule="nonzero">
<g clip-path="url(#clip40)" clip-rule="nonzero">
<path style=" stroke:none;fill-rule:nonzero;fill:rgb(100%,100%,100%);fill-opacity:1;" d="M 1360.960938 759.320313 C 1360.960938 762.238281 1359.589844 762.980469 1358.640625 763.910156 L 1374.21875 763.910156 C 1373.21875 762.980469 1371.910156 762.238281 1371.910156 759.320313 L 1371.910156 745.980469 L 1386.75 716.488281 C 1388.371094 713.203125 1389.320313 712.097656 1391.21875 710.738281 L 1378.300781 710.738281 C 1378.679688 711.234375 1379.328125 711.300781 1379.328125 712.695313 C 1379.328125 714.148438 1378.539063 715.523438 1377.960938 716.769531 L 1367.960938 737.621094 L 1357.828125 716.050781 C 1357.25 714.875 1356.601563 713.710938 1356.601563 712.394531 C 1356.601563 711.585938 1357.480469 711.234375 1357.898438 710.738281 L 1341.511719 710.738281 C 1343.328125 711.742188 1344.640625 713.5 1346.109375 716.347656 L 1360.960938 746.277344 Z M 1309.648438 759.320313 C 1309.648438 762.238281 1308.238281 762.980469 1307.308594 763.910156 L 1322.878906 763.910156 C 1321.878906 762.980469 1320.570313 762.238281 1320.570313 759.320313 L 1320.570313 718.367188 L 1331.058594 718.367188 C 1335.070313 718.367188 1335.140625 720.480469 1336.390625 721.671875 L 1336.390625 710.738281 L 1293.808594 710.738281 L 1293.808594 721.671875 C 1295.058594 720.480469 1295.140625 718.367188 1299.128906 718.367188 L 1309.648438 718.367188 Z M 1274.289063 759.320313 C 1274.289063 762.238281 1272.921875 762.980469 1271.96875 763.910156 L 1287.558594 763.910156 C 1286.53125 762.980469 1285.21875 762.238281 1285.21875 759.320313 L 1285.21875 715.316406 C 1285.21875 712.324219 1286.460938 711.671875 1287.558594 710.738281 L 1271.96875 710.738281 C 1273.058594 711.671875 1274.289063 712.324219 1274.289063 715.316406 Z M 1231.441406 734.777344 L 1231.441406 718.367188 L 1237.859375 718.367188 C 1247.109375 718.367188 1250.890625 721.074219 1250.890625 727.054688 C 1250.890625 732.222656 1247.261719 734.777344 1238.070313 734.777344 Z M 1220.519531 759.320313 C 1220.519531 762.238281 1219.128906 762.980469 1218.179688 763.910156 L 1233.78125 763.910156 C 1232.761719 762.980469 1231.441406 762.238281 1231.441406 759.320313 L 1231.441406 742.410156 L 1240.109375 742.410156 L 1251.710938 763.910156 L 1265.761719 763.910156 C 1264.320313 762.675781 1263.058594 761.886719 1261.171875 758.585938 L 1250.53125 740.097656 C 1258.109375 737.832031 1261.820313 730.988281 1261.820313 726.898438 C 1261.820313 714.648438 1253.589844 710.738281 1237.628906 710.738281 L 1218.179688 710.738281 C 1219.269531 711.671875 1220.519531 712.324219 1220.519531 715.316406 Z M 1170.699219 737.394531 C 1170.699219 726.457031 1177.03125 717.277344 1187.019531 717.277344 C 1196.78125 717.277344 1203.121094 726.542969 1203.121094 737.394531 C 1203.121094 747.824219 1196.871094 757.367188 1187.019531 757.367188 C 1177.398438 757.367188 1170.699219 748.839844 1170.699219 737.394531 M 1187.019531 765.019531 C 1202.320313 765.019531 1214.039063 752.777344 1214.039063 737.394531 C 1214.039063 721.515625 1201.808594 709.628906 1187.019531 709.628906 C 1171.429688 709.628906 1159.769531 722.238281 1159.769531 737.394531 C 1159.769531 752.777344 1171.640625 765.019531 1187.019531 765.019531 M 1110.148438 759.320313 C 1110.148438 762.238281 1108.769531 762.980469 1107.839844 763.910156 L 1123.421875 763.910156 C 1122.398438 762.980469 1121.101563 762.238281 1121.101563 759.320313 L 1121.101563 740.03125 L 1142.371094 740.03125 L 1142.371094 759.320313 C 1142.371094 762.238281 1140.96875 762.980469 1140.039063 763.910156 L 1155.628906 763.910156 C 1154.609375 762.980469 1153.300781 762.238281 1153.300781 759.320313 L 1153.300781 715.316406 C 1153.300781 712.324219 1154.539063 711.671875 1155.628906 710.738281 L 1140.039063 710.738281 C 1141.140625 711.671875 1142.371094 712.324219 1142.371094 715.316406 L 1142.371094 732.363281 L 1121.101563 732.363281 L 1121.101563 715.316406 C 1121.101563 712.324219 1122.351563 711.671875 1123.421875 710.738281 L 1107.839844 710.738281 C 1108.921875 711.671875 1110.148438 712.324219 1110.148438 715.316406 Z M 1075.371094 759.320313 C 1075.371094 762.238281 1073.988281 762.980469 1073.039063 763.910156 L 1088.628906 763.910156 C 1087.621094 762.980469 1086.289063 762.238281 1086.289063 759.320313 L 1086.289063 718.367188 L 1096.789063 718.367188 C 1100.800781 718.367188 1100.871094 720.480469 1102.121094 721.671875 L 1102.121094 710.738281 L 1059.558594 710.738281 L 1059.558594 721.671875 C 1060.800781 720.480469 1060.871094 718.367188 1064.878906 718.367188 L 1075.371094 718.367188 Z M 1010.359375 742.269531 C 1010.359375 759.972656 1016.921875 765.019531 1031.789063 765.019531 C 1048.410156 765.019531 1051.761719 756.203125 1051.761719 742.269531 L 1051.761719 715.316406 C 1051.761719 712.394531 1053.070313 711.671875 1054.101563 710.738281 L 1041.78125 710.738281 C 1042.730469 711.585938 1044.101563 712.464844 1044.101563 715.316406 L 1044.101563 742.269531 C 1044.101563 750.140625 1043.589844 757.367188 1032.820313 757.367188 C 1021.808594 757.367188 1021.289063 751.164063 1021.289063 742.269531 L 1021.289063 715.316406 C 1021.289063 712.394531 1022.609375 711.671875 1023.628906 710.738281 L 1008.039063 710.738281 C 1009.128906 711.671875 1010.359375 712.464844 1010.359375 715.316406 Z M 971.777344 741.246094 L 979.070313 721.726563 L 986.492188 741.246094 Z M 957.496094 756.996094 C 955.886719 761.136719 954.4375 762.539063 953.117188 763.910156 L 966.519531 763.910156 C 966.007813 763.402344 964.707031 762.675781 964.707031 761.53125 C 964.707031 760.34375 965.5 758.316406 966.007813 756.914063 L 969.277344 748.171875 L 988.898438 748.171875 L 992.46875 757.566406 C 992.980469 758.964844 993.699219 760.273438 993.699219 761.730469 C 993.699219 762.675781 992.539063 763.488281 992.097656 763.910156 L 1008.140625 763.910156 C 1006.671875 762.832031 1005.671875 761.816406 1003.921875 757.207031 L 986.121094 710.738281 L 972.441406 710.738281 C 973.308594 711.53125 974.25 712.035156 974.25 713.050781 C 974.25 714.804688 973.234375 716.855469 972.652344 718.300781 Z M 906.40625 759.320313 C 906.40625 762.238281 905.03125 762.980469 904.070313 763.910156 L 919.660156 763.910156 C 918.65625 762.980469 917.339844 762.238281 917.339844 759.320313 L 917.339844 718.367188 L 927.835938 718.367188 C 931.832031 718.367188 931.917969 720.480469 933.160156 721.671875 L 933.160156 710.738281 L 890.601563 710.738281 L 890.601563 721.671875 C 891.828125 720.480469 891.902344 718.367188 895.910156 718.367188 L 906.40625 718.367188 Z M 884.339844 749.039063 C 882.738281 750.652344 877.273438 757.367188 870.429688 757.367188 C 861.023438 757.367188 855.628906 748.386719 855.628906 738.046875 C 855.628906 726.542969 861.023438 717.277344 871.007813 717.277344 C 877.851563 717.277344 880.695313 722.324219 882.597656 724.789063 L 882.597656 711.023438 C 882.015625 711.445313 881.71875 712.324219 880.46875 712.324219 C 878.289063 712.324219 875.824219 709.628906 868.671875 709.628906 C 857.167969 709.628906 844.703125 719.761719 844.703125 737.335938 C 844.703125 755.753906 857.296875 765.019531 868.304688 765.019531 C 877.054688 765.019531 880.765625 760.714844 882.808594 760.714844 C 883.6875 760.714844 883.898438 761.136719 884.339844 761.671875 Z M 795.824219 742.269531 C 795.824219 759.972656 802.378906 765.019531 817.242188 765.019531 C 833.855469 765.019531 837.210938 756.203125 837.210938 742.269531 L 837.210938 715.316406 C 837.210938 712.394531 838.515625 711.671875 839.550781 710.738281 L 827.226563 710.738281 C 828.175781 711.585938 829.546875 712.464844 829.546875 715.316406 L 829.546875 742.269531 C 829.546875 750.140625 829.035156 757.367188 818.257813 757.367188 C 807.253906 757.367188 806.742188 751.164063 806.742188 742.269531 L 806.742188 715.316406 C 806.742188 712.394531 808.074219 711.671875 809.078125 710.738281 L 793.496094 710.738281 C 794.578125 711.671875 795.824219 712.464844 795.824219 715.316406 Z M 741.941406 759.320313 C 741.941406 762.238281 740.707031 763.046875 739.605469 763.910156 L 755.074219 763.910156 C 788.589844 763.910156 788.589844 742.777344 788.589844 738.695313 C 788.589844 719.460938 776.191406 710.738281 755.074219 710.738281 L 739.605469 710.738281 C 740.707031 711.671875 741.941406 712.324219 741.941406 715.316406 Z M 752.878906 718.367188 C 762.566406 718.367188 777.652344 718.949219 777.652344 737.335938 C 777.652344 755.101563 762.488281 756.261719 752.878906 756.261719 Z M 683.867188 759.320313 C 683.867188 762.238281 682.476563 762.980469 681.53125 763.910156 L 693.851563 763.910156 C 692.835938 762.980469 691.515625 762.238281 691.515625 759.320313 L 691.515625 724.277344 L 691.65625 724.277344 L 720.015625 763.910156 L 729.488281 763.910156 L 729.488281 715.316406 C 729.488281 712.394531 730.792969 711.671875 731.816406 710.738281 L 719.507813 710.738281 C 720.523438 711.742188 721.824219 712.324219 721.824219 715.316406 L 721.824219 747.453125 L 721.6875 747.453125 L 695.511719 710.738281 L 681.53125 710.738281 C 682.636719 711.671875 683.867188 712.324219 683.867188 715.316406 Z M 633.273438 737.394531 C 633.273438 726.457031 639.617188 717.277344 649.589844 717.277344 C 659.375 717.277344 665.710938 726.542969 665.710938 737.394531 C 665.710938 747.824219 659.445313 757.367188 649.589844 757.367188 C 639.984375 757.367188 633.273438 748.839844 633.273438 737.394531 M 649.589844 765.019531 C 664.898438 765.019531 676.628906 752.777344 676.628906 737.394531 C 676.628906 721.515625 664.390625 709.628906 649.589844 709.628906 C 634.023438 709.628906 622.347656 722.238281 622.347656 737.394531 C 622.347656 752.777344 634.234375 765.019531 649.589844 765.019531 M 616.941406 749.039063 C 615.351563 750.652344 609.882813 757.367188 603.03125 757.367188 C 593.636719 757.367188 588.238281 748.386719 588.238281 738.046875 C 588.238281 726.542969 593.636719 717.277344 603.613281 717.277344 C 610.464844 717.277344 613.300781 722.324219 615.195313 724.789063 L 615.195313 711.023438 C 614.628906 711.445313 614.320313 712.324219 613.085938 712.324219 C 610.890625 712.324219 608.425781 709.628906 601.273438 709.628906 C 589.769531 709.628906 577.304688 719.761719 577.304688 737.335938 C 577.304688 755.753906 589.925781 765.019531 600.921875 765.019531 C 609.660156 765.019531 613.371094 760.714844 615.425781 760.714844 C 616.285156 760.714844 616.515625 761.136719 616.941406 761.671875 Z M 521.128906 759.320313 C 521.128906 762.238281 519.753906 762.980469 518.792969 763.910156 L 554.640625 763.910156 L 554.640625 753.9375 C 553.265625 755.398438 553.265625 756.261719 547.945313 756.261719 L 532.0625 756.261719 L 532.0625 715.316406 C 532.0625 712.324219 533.296875 711.671875 534.390625 710.738281 L 518.792969 710.738281 C 519.898438 711.671875 521.128906 712.324219 521.128906 715.316406 Z M 477.449219 741.246094 L 484.726563 721.726563 L 492.164063 741.246094 Z M 463.152344 756.996094 C 461.550781 761.136719 460.097656 762.539063 458.789063 763.910156 L 472.191406 763.910156 C 471.679688 763.402344 470.363281 762.675781 470.363281 761.53125 C 470.363281 760.34375 471.171875 758.316406 471.679688 756.914063 L 474.953125 748.171875 L 494.570313 748.171875 L 498.140625 757.566406 C 498.648438 758.964844 499.371094 760.273438 499.371094 761.730469 C 499.371094 762.675781 498.210938 763.488281 497.761719 763.910156 L 513.804688 763.910156 C 512.332031 762.832031 511.324219 761.816406 509.570313 757.207031 L 491.792969 710.738281 L 478.097656 710.738281 C 478.964844 711.53125 479.925781 712.035156 479.925781 713.050781 C 479.925781 714.804688 478.894531 716.855469 478.308594 718.300781 Z M 439.851563 759.320313 C 439.851563 762.238281 438.476563 762.980469 437.542969 763.910156 L 453.125 763.910156 C 452.101563 762.980469 450.789063 762.238281 450.789063 759.320313 L 450.789063 715.316406 C 450.789063 712.324219 452.046875 711.671875 453.125 710.738281 L 437.542969 710.738281 C 438.621094 711.671875 439.851563 712.324219 439.851563 715.316406 Z M 431.046875 749.039063 C 429.429688 750.652344 423.972656 757.367188 417.117188 757.367188 C 407.714844 757.367188 402.316406 748.386719 402.316406 738.046875 C 402.316406 726.542969 407.714844 717.277344 417.699219 717.277344 C 424.558594 717.277344 427.386719 722.324219 429.285156 724.789063 L 429.285156 711.023438 C 428.703125 711.445313 428.410156 712.324219 427.164063 712.324219 C 424.992188 712.324219 422.515625 709.628906 415.378906 709.628906 C 403.859375 709.628906 391.394531 719.761719 391.394531 737.335938 C 391.394531 755.753906 404.003906 765.019531 414.992188 765.019531 C 423.746094 765.019531 427.472656 760.714844 429.5 760.714844 C 430.390625 760.714844 430.605469 761.136719 431.046875 761.671875 Z M 337.542969 759.320313 C 337.542969 762.238281 336.167969 762.980469 335.203125 763.910156 L 347.527344 763.910156 C 346.507813 762.980469 345.207031 762.238281 345.207031 759.320313 L 345.207031 724.277344 L 345.347656 724.277344 L 373.6875 763.910156 L 383.164063 763.910156 L 383.164063 715.316406 C 383.164063 712.394531 384.480469 711.671875 385.488281 710.738281 L 373.183594 710.738281 C 374.199219 711.742188 375.519531 712.324219 375.519531 715.316406 L 375.519531 747.453125 L 375.363281 747.453125 L 349.199219 710.738281 L 335.203125 710.738281 C 336.308594 711.671875 337.542969 712.324219 337.542969 715.316406 Z M 293.902344 741.246094 L 301.179688 721.726563 L 308.601563 741.246094 Z M 279.605469 756.996094 C 278.007813 761.136719 276.550781 762.539063 275.234375 763.910156 L 288.644531 763.910156 C 288.136719 763.402344 286.820313 762.675781 286.820313 761.53125 C 286.820313 760.34375 287.609375 758.316406 288.136719 756.914063 L 291.421875 748.171875 L 311.015625 748.171875 L 314.578125 757.566406 C 315.089844 758.964844 315.828125 760.273438 315.828125 761.730469 C 315.828125 762.675781 314.652344 763.488281 314.214844 763.910156 L 330.246094 763.910156 C 328.800781 762.832031 327.769531 761.816406 326.023438 757.207031 L 308.246094 710.738281 L 294.554688 710.738281 C 295.417969 711.53125 296.363281 712.035156 296.363281 713.050781 C 296.363281 714.804688 295.347656 716.855469 294.761719 718.300781 Z M 223.289063 759.320313 C 223.289063 762.238281 221.902344 762.980469 220.953125 763.910156 L 233.277344 763.910156 C 232.257813 762.980469 230.9375 762.238281 230.9375 759.320313 L 230.9375 724.277344 L 231.097656 724.277344 L 259.4375 763.910156 L 268.898438 763.910156 L 268.898438 715.316406 C 268.898438 712.394531 270.21875 711.671875 271.238281 710.738281 L 258.929688 710.738281 C 259.949219 711.742188 261.253906 712.324219 261.253906 715.316406 L 261.253906 747.453125 L 261.109375 747.453125 L 234.945313 710.738281 L 220.953125 710.738281 C 222.042969 711.671875 223.289063 712.324219 223.289063 715.316406 Z M 200.160156 759.320313 C 200.160156 762.238281 198.757813 762.980469 197.824219 763.910156 L 213.417969 763.910156 C 212.398438 762.980469 211.082031 762.238281 211.082031 759.320313 L 211.082031 715.316406 C 211.082031 712.324219 212.324219 711.671875 213.417969 710.738281 L 197.824219 710.738281 C 198.929688 711.671875 200.160156 712.324219 200.160156 715.316406 Z M 159.136719 759.320313 C 159.136719 762.238281 157.765625 762.980469 156.816406 763.910156 L 172.410156 763.910156 C 171.390625 762.980469 170.074219 762.238281 170.074219 759.320313 L 170.074219 740.894531 L 183.785156 740.894531 C 185.441406 740.894531 186.390625 741.046875 187.128906 741.402344 C 187.851563 741.761719 188.363281 742.269531 189.082031 743.144531 L 189.082031 730.988281 C 187.9375 732.296875 188.007813 733.234375 183.785156 733.234375 L 170.074219 733.234375 L 170.074219 718.367188 L 184.949219 718.367188 C 190.046875 718.367188 189.820313 719.546875 191.347656 720.921875 L 191.347656 710.738281 L 156.816406 710.738281 C 157.90625 711.671875 159.136719 712.324219 159.136719 715.316406 L 159.136719 759.320313 "/>
</g>
</g>
<g clip-path="url(#clip41)" clip-rule="nonzero">
<g clip-path="url(#clip42)" clip-rule="nonzero">
<path style=" stroke:none;fill-rule:nonzero;fill:rgb(100%,100%,100%);fill-opacity:1;" d="M 1413.199219 568.808594 L 1419.179688 568.808594 C 1422.410156 568.808594 1424.210938 570.121094 1424.210938 572.742188 C 1424.210938 575.382813 1422.179688 576.570313 1419.660156 576.570313 L 1413.199219 576.570313 Z M 1407.820313 593.339844 L 1413.199219 593.339844 L 1413.199219 581.359375 L 1419.550781 581.359375 L 1424.210938 593.339844 L 1430.179688 593.339844 L 1424.691406 580.535156 C 1426.601563 579.570313 1429.828125 578.496094 1429.828125 573.230469 C 1429.828125 564.632813 1423.371094 563.652344 1417.75 563.652344 L 1407.820313 563.652344 Z M 1394.53125 579.21875 C 1394.53125 566.0625 1405.308594 555.292969 1418.46875 555.292969 C 1431.621094 555.292969 1442.378906 566.0625 1442.378906 579.21875 C 1442.378906 592.375 1431.621094 603.140625 1418.46875 603.140625 C 1405.308594 603.140625 1394.53125 592.375 1394.53125 579.21875 M 1418.46875 607.339844 C 1433.890625 607.339844 1446.570313 594.773438 1446.570313 579.21875 C 1446.570313 563.792969 1433.890625 551.101563 1418.46875 551.101563 C 1403.03125 551.101563 1390.351563 563.792969 1390.351563 579.21875 C 1390.351563 594.773438 1403.03125 607.339844 1418.46875 607.339844 "/>
</g>
</g>
</g>
</svg>
